<?xml version="1.0" encoding="utf-8"?>
<!-- Generator: Adobe Illustrator 27.0.0, SVG Export Plug-In . SVG Version: 6.00 Build 0)  -->
<svg version="1.1" id="Capa_1" xmlns="http://www.w3.org/2000/svg" xmlns:xlink="http://www.w3.org/1999/xlink" x="0px" y="0px"
	 viewBox="0 0 295.1 160" style="enable-background:new 0 0 295.1 160;" xml:space="preserve">
<style type="text/css">
	.st0{fill:#5B36F2;}
</style>
<g>
	<path class="st0" d="M148.1,128.5c-5.3-5-9.4-8.6-13.2-12.5C99.3,80.6,63.8,45.1,28.4,9.6c-7-7-14.4-14.6-23.9-5
		c-9.6,9.6-1.7,17,5.2,23.9c41,41,82.3,81.7,122.8,123.2c11.4,11.6,19.6,10.8,30.6-0.4c40.2-41,81.1-81.4,121.7-122
		c0.4-0.4,0.8-0.8,1.2-1.2c7.1-7,14.2-14.6,4.5-24c-8.9-8.6-16.2-2.2-22.8,4.5c-3.5,3.6-7.1,7.1-10.6,10.7
		C221.1,55.3,185.3,91.2,148.1,128.5z"/>
	<path class="st0" d="M148.1,128.5c37.2-37.3,73-73.3,108.8-109.2c3.5-3.5,7.1-7.1,10.6-10.7c6.6-6.8,13.9-13.1,22.8-4.5
		c9.8,9.4,2.6,17-4.5,24c-0.4,0.4-0.8,0.8-1.2,1.2c-40.6,40.6-81.4,81-121.7,122c-10.9,11.1-19.2,12-30.6,0.4
		C91.9,110.2,50.7,69.5,9.6,28.5C2.7,21.6-5.1,14.2,4.4,4.6s17-1.9,23.9,5c35.5,35.5,71,71,106.5,106.4
		C138.7,119.9,142.8,123.5,148.1,128.5z"/>
</g>
</svg>
